<svg xmlns="http://www.w3.org/2000/svg" viewBox="0 0 1024 1025"><g fill="none" stroke-width="2"><path stroke="#141414" d="M968.29 33.5q-1.77.2-2.95-1.35-.34-.44-.48.09-.1.4.4.87.67.63-.21.36l-.98-.31q-.36-.12-.74-.12c-37.39.14-74.76-.11-112.14-.11l-678 .02q-31.47 0-62.94.03-25.88.03-51.77.12-.1 0-.07-.09.05-.12.07-.25.11-.5-.34-.75l-.39-.22M1024 550.56l-.3-.37q-.11-.14-.16.04-.03.16-.08.32-.08.3-.1-.01-.95-13.45-.52-26.92.04-1.21-.5-.13-.5 1.02-.33 2.01.12.64-.52.5c-2.94-.65-6.25-.25-8.57-.37-13.57-.71-30.79-.14-40.57-.14q-189.8.03-379.6 0c-7.82 0-15.55-.62-23.38-.21-7.89.41-15.91-.32-24.04-.03-5.09.19-11.19-.36-16.85.1q-.51.04-.7-.42l-.49-1.18" vector-effect="non-scaling-stroke"/><path stroke="#8c8c8c" d="m527.29 523.75 255.27-290.6a1.77 1.74-24.6 0 0 .44-1.16V216.4a.41.4 0 0 0-.41-.4H269.75q-.5 0-.5.5v36.75q0 .5.5.5h438.47q.45 0 .15.33L471.5 524.79" vector-effect="non-scaling-stroke"/><path stroke="#141414" d="M471.5 524.79q-1.35-.07-1.31 1.15.02.64-.58.43-1.97-.71-3.36-.74c-30.63-.57-61.19-.18-91.81-.16q-168.67.07-337.34.01c-5.97 0-13.66-1-20.16-.54q-8.9.63-15.1.25-.35-.02-.43.32-.04.18-.2.25-.49.18-.49-.34l-.69-45.23" vector-effect="non-scaling-stroke"/><path stroke="#878787" d="M527.29 523.75 323.97 755.18a.34.34 0 0 0 .26.57h454.02q.49 0 .49.49l.05 34.51" vector-effect="non-scaling-stroke"/><path stroke="gray" d="m778.79 790.75-.05 2.27q-.01.48-.49.48H253.02q-.46 0-.62-.43l-4.3-11.9" vector-effect="non-scaling-stroke"/><path stroke="#878787" d="M248.1 781.17q.03-.89 1.15-2.17L471.5 524.79" vector-effect="non-scaling-stroke"/><path stroke="#080808" d="M248.1 781.17q-1.74.62-.28 1.89.43.37.34.93l-.48 2.98q-.08.53-.62.53H2.98a.74.74 0 0 0-.74.74q.05 9.39-.05 18.69-.02 1.68-1.38 2.38-.1.05-.1.15-.01.18.19.25.26.09.26.37.03 8.45.21 16.93.06 2.74-.87 5.27-.25.7-.25-.04V721.82q0-.01-.01-.01-.15-.06-.24-.12M1024 700.31l-.82 43.18q-.04 1.87-.45.04-.31-1.33-.29-2.63.02-1.03-.74-.33c-1.17 1.05-.46 13.36-.38 15.62.15 4.42-.61 8.87-.43 13.07q.36 8.31-.13 16.14a2.25 2.24-88.1 0 1-2.24 2.1H781.25q-.28 0-.51-.16l-.71-.46q-.55-.37-.66.28l-.58 3.59" vector-effect="non-scaling-stroke"/></g><path fill="#0f0f0f" d="M141.31 0h741q48.47 3.16 85.98 33.5-1.77.2-2.95-1.35-.34-.44-.48.09-.1.4.4.87.67.63-.21.36l-.98-.31q-.36-.12-.74-.12c-37.39.14-74.76-.11-112.14-.11l-678 .02q-31.47 0-62.94.03-25.88.03-51.77.12-.1 0-.07-.09.05-.12.07-.25.11-.5-.34-.75l-.39-.22Q94.55 3.23 141.31 0Z"/><path fill="#181818" d="m57.75 31.79.39.22q.45.25.34.75-.02.13-.07.25-.03.09.07.09 25.89-.09 51.77-.12 31.47-.03 62.94-.03l678-.02c37.38 0 74.75.25 112.14.11q.38 0 .74.12l.98.31q.88.27.21-.36-.5-.47-.4-.87.14-.53.48-.09 1.18 1.55 2.95 1.35c33.37 26.16 52.71 66.03 55.71 108.06v409l-.3-.37q-.11-.14-.16.04-.03.16-.08.32-.08.3-.1-.01-.95-13.45-.52-26.92.04-1.21-.5-.13-.5 1.02-.33 2.01.12.64-.52.5c-2.94-.65-6.25-.25-8.57-.37-13.57-.71-30.79-.14-40.57-.14q-189.8.03-379.6 0c-7.82 0-15.55-.62-23.38-.21-7.89.41-15.91-.32-24.04-.03-5.09.19-11.19-.36-16.85.1q-.51.04-.7-.42l-.49-1.18 255.27-290.6a1.77 1.74-24.6 0 0 .44-1.16V216.4a.41.4 0 0 0-.41-.4H269.75q-.5 0-.5.5v36.75q0 .5.5.5h438.47q.45 0 .15.33L471.5 524.79q-1.35-.07-1.31 1.15.02.64-.58.43-1.97-.71-3.36-.74c-30.63-.57-61.19-.18-91.81-.16q-168.67.07-337.34.01c-5.97 0-13.66-1-20.16-.54q-8.9.63-15.1.25-.35-.02-.43.32-.04.18-.2.25-.49.18-.49-.34l-.69-45.23-.03-339q5.43-67.47 57.75-109.4Z"/><path fill="#fff" d="M527.29 523.75 323.97 755.18a.34.34 0 0 0 .26.57h454.02q.49 0 .49.49l.05 34.51-.05 2.27q-.01.48-.49.48H253.02q-.46 0-.62-.43l-4.3-11.9q.03-.89 1.15-2.17L471.5 524.79l236.87-270.71q.3-.33-.15-.33H269.75q-.5 0-.5-.5V216.5q0-.5.5-.5h512.84a.41.4 0 0 1 .41.4v15.59a1.77 1.74-24.6 0 1-.44 1.16l-255.27 290.6Z"/><path fill="#0f0f0f" d="m.03 480.19.69 45.23q0 .52.49.34.16-.07.2-.25.08-.34.43-.32 6.2.38 15.1-.25c6.5-.46 14.19.54 20.16.54q168.67.06 337.34-.01c30.62-.02 61.18-.41 91.81.16q1.39.03 3.36.74.6.21.58-.43-.04-1.22 1.31-1.15L249.25 779q-1.12 1.28-1.15 2.17-1.74.62-.28 1.89.43.37.34.93l-.48 2.98q-.08.53-.62.53H2.98a.74.74 0 0 0-.74.74q.05 9.39-.05 18.69-.02 1.68-1.38 2.38-.1.05-.1.15-.01.18.19.25.26.09.26.37.03 8.45.21 16.93.06 2.74-.87 5.27-.25.7-.25-.04V721.82q0-.01-.01-.01-.15-.06-.24-.12l.03-241.5ZM527.29 523.75l.49 1.18q.19.46.7.42c5.66-.46 11.76.09 16.85-.1 8.13-.29 16.15.44 24.04.03 7.83-.41 15.56.21 23.38.21q189.8.03 379.6 0c9.78 0 27-.57 40.57.14 2.32.12 5.63-.28 8.57.37q.64.14.52-.5-.17-.99.33-2.01.54-1.08.5.13-.43 13.47.52 26.92.02.31.1.01.05-.16.08-.32.05-.18.16-.04l.3.37v149.75l-.82 43.18q-.04 1.87-.45.04-.31-1.33-.29-2.63.02-1.03-.74-.33c-1.17 1.05-.46 13.36-.38 15.62.15 4.42-.61 8.87-.43 13.07q.36 8.31-.13 16.14a2.25 2.24-88.1 0 1-2.24 2.1H781.25q-.28 0-.51-.16l-.71-.46q-.55-.37-.66.28l-.58 3.59-.05-34.51q0-.49-.49-.49H324.23a.34.34 0 0 1-.26-.57l203.32-231.43Z"/><path fill="#010101" d="M1024 700.31v182.25c-4.98 70.5-55.82 127.55-125.61 139.63Q887.9 1024 880.5 1024H151.82C70.37 1024 6.17 963.66 0 882.69v-161q.09.06.24.12.01 0 .01.01v110.42q0 .74.25.04.93-2.53.87-5.27-.18-8.48-.21-16.93 0-.28-.26-.37-.2-.07-.19-.25 0-.1.1-.15 1.36-.7 1.38-2.38.1-9.3.05-18.69a.74.74 0 0 1 .74-.74h244.08q.54 0 .62-.53l.48-2.98q.09-.56-.34-.93-1.46-1.27.28-1.89l4.3 11.9q.16.43.62.43h525.23q.48 0 .49-.48l.05-2.27.58-3.59q.11-.65.66-.28l.71.46q.23.16.51.16h237.27a2.25 2.24-88.1 0 0 2.24-2.1q.49-7.83.13-16.14c-.18-4.2.58-8.65.43-13.07-.08-2.26-.79-14.57.38-15.62q.76-.7.74.33-.02 1.3.29 2.63.41 1.83.45-.04l.82-43.18Z"/></svg>